<svg width="33" height="32" viewBox="0 0 33 32" fill="none" xmlns="http://www.w3.org/2000/svg">
<path d="M28.0183 4.93104C25.6929 2.4551 22.6181 0.813479 19.2681 0.25931C18.4572 0.0975733 17.6319 0.0188838 16.805 0.0244599C16.7046 0.00497572 16.6022 -0.00291089 16.5 0.000954023C13.2133 -0.0138657 10.0049 1.00441 7.32746 2.91212C6.65 3.3622 6.02107 3.88144 5.45076 4.46149C2.97828 6.79315 1.33138 9.86685 0.758974 13.2181C0.597409 14.0376 0.518835 14.8713 0.524442 15.7065C0.504971 15.807 0.49709 15.9094 0.500954 16.0117C0.497377 19.2919 1.51402 22.4918 3.40985 25.1675C3.87481 25.8479 4.4009 26.4844 4.98156 27.0691C7.31688 29.5321 10.3871 31.1713 13.7319 31.7408C14.5428 31.9025 15.3681 31.9812 16.195 31.9755C16.2954 31.995 16.3978 32.0029 16.5 31.999C19.7759 32.0144 22.9747 31.0048 25.6491 29.1115C26.329 28.6462 26.965 28.1197 27.5492 27.5386C30.0217 25.2069 31.6686 22.1332 32.241 18.7819C32.4025 17.9703 32.4811 17.1444 32.4756 16.317C32.495 16.2165 32.5029 16.114 32.499 16.0117C32.5174 12.7221 31.4996 9.51036 29.5902 6.83261C29.1324 6.14673 28.6057 5.50955 28.0183 4.93104ZM26.6578 6.92646C24.9921 9.06288 22.787 11.1053 20.1126 11.6217H20.0891C19.6035 11.2237 19.0569 10.9067 18.4705 10.6827C19.7373 8.24112 19.9016 5.35359 19.6434 2.72426C22.3654 3.35071 24.8203 4.82137 26.6578 6.92646ZM16.5 19.322C15.8425 19.3243 15.1991 19.1312 14.6514 18.7671C14.1037 18.403 13.6764 17.8843 13.4237 17.2768C13.1709 16.6693 13.1042 16.0004 13.2319 15.3549C13.3596 14.7095 13.676 14.1165 14.1409 13.6512C14.6058 13.1859 15.1984 12.8692 15.8434 12.7414C16.4884 12.6136 17.1568 12.6804 17.7639 12.9332C18.3709 13.1861 18.8892 13.6137 19.2531 14.1618C19.6169 14.7099 19.81 15.3537 19.8076 16.0117C19.8082 16.4466 19.723 16.8772 19.5569 17.2791C19.3909 17.6809 19.1472 18.046 18.84 18.3535C18.5328 18.661 18.1679 18.9048 17.7664 19.071C17.3649 19.2372 16.9345 19.3225 16.5 19.322ZM16.5 2.34857C16.7511 2.3408 17.0025 2.35653 17.2507 2.39557C17.6025 5.09539 17.4852 8.10028 15.937 10.354C15.3125 10.4209 14.7026 10.5873 14.1306 10.847C13.3096 8.24113 11.386 6.08136 9.34504 4.39099C11.4927 3.05512 13.9713 2.34761 16.5 2.34857ZM7.42138 5.84665C9.57957 7.51337 11.6205 9.72014 12.1132 12.3965V12.42C11.7225 12.9154 11.4136 13.4702 11.1982 14.0633C8.75856 12.772 5.873 12.5843 3.22213 12.866C3.84823 10.142 5.31785 7.68547 7.42138 5.84665ZM2.84685 16.0117C2.83909 15.7604 2.85481 15.5089 2.89381 15.2605C5.5915 14.9084 8.61781 15.0258 10.8698 16.5986C10.9337 17.2167 11.1002 17.8197 11.3625 18.3829C8.73508 19.2045 6.57689 21.1295 4.88777 23.172C3.55288 21.0227 2.8459 18.5423 2.84685 16.0117V16.0117ZM6.34222 25.097C8.00786 22.9137 10.2365 20.8713 12.9342 20.4018C13.4124 20.7922 13.9512 21.1015 14.5294 21.3174C13.2626 23.7589 13.0984 26.6465 13.3564 29.2759C10.6403 28.6485 8.18795 27.1875 6.34222 25.097V25.097ZM16.5 29.6514C16.2489 29.6592 15.9975 29.6435 15.7493 29.6046C15.3974 26.8812 15.5381 23.8764 17.0865 21.6461C17.704 21.5821 18.3066 21.4155 18.8694 21.153C19.6904 23.7824 21.5906 25.9423 23.6315 27.6325C21.4916 28.9638 19.0197 29.6636 16.5 29.6514V29.6514ZM25.6021 26.1535C23.4204 24.5101 21.3795 22.28 20.8868 19.5802C21.2771 19.0931 21.5861 18.5461 21.8018 17.9603C23.6315 18.9228 25.7194 19.275 27.7603 19.275C28.4344 19.2716 29.1078 19.2324 29.7777 19.1576C29.1449 21.8666 27.6856 24.3116 25.6021 26.1535V26.1535ZM30.1531 16.0117C30.1609 16.2631 30.1452 16.5146 30.1062 16.763C27.4085 17.1152 24.3822 16.9743 22.1302 15.4248C22.0663 14.8068 21.8998 14.2038 21.6375 13.6406C24.2649 12.819 26.4231 10.8939 28.1122 8.85152C29.4471 11.0008 30.1541 13.4811 30.1531 16.0117V16.0117Z" fill="#C3D7FF"/>
</svg>
