<svg width="22" height="32" viewBox="0 0 22 32" fill="none" xmlns="http://www.w3.org/2000/svg">
<path d="M17.6663 4.84768C11.5063 3.27968 9.72337 3.2 9.42857 3.2V0H1.57143V4.19328C0.965171 4.9472 0 6.39936 0 8V28.8C0 30.3517 1.10189 32 3.14286 32H18.8571C20.8981 32 22 30.3517 22 28.8V11.2C22 9.02016 20.6558 5.60768 17.6663 4.84768ZM18.8571 27.2C18.8571 28.0838 18.1544 28.8 17.2857 28.8H4.71429C3.8456 28.8 3.14286 28.0838 3.14286 27.2V12.8C3.14286 11.8605 4.01846 10.9741 5.09489 11.2477L17.6663 14.4477C18.3662 14.6259 18.8571 15.2656 18.8571 16V27.2ZM18.8571 11.2C18.8571 12.2838 17.8536 12.9939 16.9051 12.7523L10.6194 11.1523C9.9198 10.9741 9.42857 10.3344 9.42857 9.6V8C9.42857 6.77856 10.565 6.24032 11.3806 6.44768L17.6663 8.04768C18.3662 8.22592 18.8571 8.8656 18.8571 9.6V11.2ZM4.71429 27.2H17.2857V16L4.71429 12.8V27.2ZM11 16C11 16 14.1429 19.2 14.1429 22.4C14.1429 24.167 12.7355 25.6 11 25.6C9.26451 25.6 7.85714 24.167 7.85714 22.4C7.85714 19.2 11 16 11 16Z" fill="#C3D7FF"/>
</svg>
