<svg width="30" height="27" viewBox="0 0 30 27" fill="none" xmlns="http://www.w3.org/2000/svg">
<path d="M12.7347 12.6861C12.5968 12.8039 12.4857 12.9506 12.4091 13.116C12.3325 13.2815 12.2921 13.4617 12.2908 13.6445V23.8178H23.1061V25.1421C23.1061 25.6102 23.2896 26.0591 23.6163 26.3901C23.943 26.721 24.386 26.907 24.848 26.907H27.101C27.563 26.907 28.006 26.721 28.3327 26.3901C28.6593 26.0591 28.8429 25.6102 28.8429 25.1421V16.6996C28.8822 15.1834 28.4612 13.6915 27.6367 12.4256C27.5551 12.3036 27.4704 12.1836 27.3827 12.0658H27.4837H28.2337C28.6986 12.0578 29.1425 11.8676 29.4718 11.535C29.8012 11.2024 29.9906 10.7534 30 10.2824C30 9.7954 30 9.3984 30 9.04171C30 8.5818 29.821 8.14044 29.5017 7.8135C29.1825 7.48655 28.7488 7.30041 28.2949 7.29551C28.0806 7.29551 27.8663 7.29551 27.649 7.29551C26.9188 7.33404 26.2289 7.64701 25.7143 8.17327C24.8816 6.07968 23.8378 3.70385 23.1827 2.75166C22.0194 1.05819 20.3265 0.580538 19.1541 0.378934C17.5365 0.117198 15.9003 -0.00936018 14.2622 0.000538617C15.6189 1.92598 16.2142 4.29655 15.9309 6.64479C15.6475 8.99303 14.5061 11.1485 12.7316 12.6861H12.7347ZM19.4878 14.8944L22.6776 14.0477C22.8769 13.9944 23.0857 13.9879 23.2879 14.0286C23.4902 14.0693 23.6806 14.1562 23.8447 14.2827C24.0088 14.4092 24.1423 14.572 24.2349 14.7586C24.3276 14.9452 24.3771 15.1508 24.3796 15.3597V16.2064C24.3796 16.5708 24.2367 16.9203 23.9824 17.178C23.7281 17.4357 23.3831 17.5804 23.0235 17.5804H19.8337C19.5052 17.5787 19.1884 17.4562 18.9423 17.2358C18.6962 17.0153 18.5375 16.7118 18.4956 16.3817C18.4537 16.0516 18.5315 15.7172 18.7145 15.4409C18.8976 15.1645 19.1734 14.9648 19.4908 14.8789L19.4878 14.8944ZM5.99392e-06 5.49658C-0.00113944 4.50226 0.215776 3.52009 0.635072 2.62109C1.05437 1.72209 1.66557 0.928706 2.4245 0.298293C2.54724 0.194195 2.70218 0.137108 2.86225 0.137009C3.05361 0.137826 3.2369 0.215207 3.37221 0.352303C3.50752 0.489399 3.58389 0.675106 3.5847 0.868988V3.97059C3.5847 4.22353 3.63387 4.47399 3.72941 4.70768C3.82494 4.94136 3.96497 5.15369 4.14149 5.33255C4.49801 5.69376 4.98154 5.89669 5.48572 5.89669H7.80613C8.05577 5.89669 8.30297 5.84687 8.53362 5.75007C8.76426 5.65328 8.97382 5.5114 9.15035 5.33255C9.32688 5.15369 9.4669 4.94136 9.56244 4.70768C9.65798 4.47399 9.70715 4.22353 9.70715 3.97059V0.868988C9.70795 0.675106 9.78433 0.489399 9.91964 0.352303C10.0549 0.215207 10.2382 0.137826 10.4296 0.137009C10.5897 0.137108 10.7446 0.194195 10.8673 0.298293C11.6169 0.9214 12.2225 1.70339 12.6415 2.58922C13.0606 3.47505 13.2829 4.44317 13.2928 5.42544C13.3027 6.40771 13.1 7.38025 12.6989 8.27458C12.2979 9.16891 11.7082 9.9633 10.9714 10.6018C10.537 10.9769 10.1879 11.4427 9.94801 11.9674C9.70811 12.4921 9.58313 13.0632 9.58164 13.6414V24.9002C9.58164 25.176 9.52803 25.449 9.42388 25.7038C9.31973 25.9585 9.16707 26.19 8.97463 26.385C8.78218 26.58 8.55372 26.7346 8.30228 26.8402C8.05084 26.9457 7.78135 27 7.50919 27H5.78266C5.23301 27 4.70587 26.7788 4.31722 26.385C3.92856 25.9912 3.71021 25.4571 3.71021 24.9002V13.6445C3.70872 13.0663 3.58373 12.4952 3.34383 11.9705C3.10393 11.4458 2.7548 10.98 2.32041 10.6049C1.5917 9.97441 1.0068 9.19109 0.60617 8.3091C0.205537 7.42711 -0.00128361 6.46749 5.99392e-06 5.49658Z" fill="#C3D7FF"/>
</svg>
